<?xml version="1.0" encoding="UTF-8"?>
<svg id="Layer_1" data-name="Layer 1" xmlns="http://www.w3.org/2000/svg" viewBox="0 0 874 1057">
  <defs>
    <style>
      .cls-1 {
        fill: #6d5650;
      }

      .cls-2 {
        fill: #ffcf46;
      }

      .cls-3 {
        fill: #fff;
      }

      .cls-4 {
        fill: #ffd736;
      }

      .cls-5 {
        fill: #ffd040;
      }

      .cls-6 {
        opacity: .4;
      }

      .cls-7 {
        opacity: .5;
      }

      .cls-8 {
        fill: #fbab29;
      }

      .cls-9 {
        fill: #fee267;
      }
    </style>
  </defs>
  <path class="cls-8" d="M237.8,437.6c-2.2-.6-55.9-16.5-143.9-91.4C3,268.7,0,140.9,0,135.5c0-4.4,1.6-8.6,4.7-11.8,3.1-3.1,7.3-4.9,11.6-5l156.1-1.8.4,33-138.4,1.6c3.9,34.9,19.5,117.1,81,169.4,81.7,69.5,131.1,84.7,131.6,84.8l-9.2,31.8Z"/>
  <path class="cls-8" d="M636.1,437.6l-9.1-31.8c.4-.1,49.8-15.3,131.5-84.8,61.5-52.3,77.1-134.5,81-169.4l-138.4-1.6.4-33,156.1,1.8c4.4,0,8.6,1.8,11.6,5,3.1,3.1,4.7,7.4,4.7,11.8,0,5.4-3,133.2-93.9,210.6-88,74.9-141.6,90.8-143.9,91.4Z"/>
  <path class="cls-5" d="M165.2,118.7s-20.2-7.3-20.2-27.5-3.7-29.4,14.7-47.7C178.1,25.1,317,0,429,0s265,30.6,283.4,47.1c18.4,16.5,11,60.6,7.3,67.9-3.7,7.3-18.4,5.5-18.4,5.5l-536.1-1.8Z"/>
  <path class="cls-4" d="M427.8,61.8c-69.1,0-214.8,9.2-268.1,47.7,0,0,0,198.3,55.1,299.3,55.1,101,152.4,183.6,152.4,183.6h132.2s97.3-82.6,152.4-183.6c55.1-101,55.1-299.3,55.1-299.3-58.8-38.6-209.9-47.7-279.1-47.7Z"/>
  <path class="cls-9" d="M427.8,61.8c-69.1,0-214.8,9.2-268.1,47.7,0,0,0,198.3,55.1,299.3,26.1,47.8,61.7,91.5,91.9,124.3,21.1,9,45.4,14.6,73.4,15.2,168.9,3.7,213-139.5,231.3-191,28.9-81,45.4-208.2,51.9-267.2-71-22.4-179.8-28.4-235.5-28.4Z"/>
  <path class="cls-2" d="M622.4,840.3c-16.5-49.6-51.4-42.2-51.4-42.2,0,0,0-15.9-24.5-18.2-15.1-4.7-54.1-19.6-67.3-53.4-16.5-42.2-9.2-95.5-9.2-95.5l-36.7-4.8-36.7,4.8s7.3,53.2-9.2,95.5c-13.2,33.8-52.2,48.7-67.3,53.4-24.4,2.3-24.5,18.2-24.5,18.2,0,0-34.9-7.3-51.4,42.2h378.2Z"/>
  <path class="cls-8" d="M295.6,798.1c23-1.5,45.9-2.5,68.9-3,23-.6,45.9-.8,68.9-.9,23,0,45.9.2,68.9.8,23,.5,45.9,1.5,68.9,3-23,1.5-45.9,2.5-68.9,3-23,.6-45.9.8-68.9.8-23,0-45.9-.2-68.9-.9-23-.5-45.9-1.5-68.9-3Z"/>
  <path class="cls-8" d="M499.4,618.1h-130.4c-8.1,0-14.7-6.6-14.7-14.7s6.6-14.7,14.7-14.7h130.4c8.1,0,14.7,6.6,14.7,14.7s-6.6,14.7-14.7,14.7Z"/>
  <path class="cls-8" d="M492.1,636.7h-115.7c-7.2,0-13-5.8-13-13s5.8-13,13-13h115.7c7.2,0,13,5.8,13,13s-5.8,13-13,13Z"/>
  <rect class="cls-1" x="214.8" y="838.5" width="449.8" height="218.5" rx="24.6" ry="24.6"/>
  <path class="cls-8" d="M307,876.3h265.5c6.3,0,11.4,5.1,11.4,11.4v92.5c0,6.3-5.1,11.4-11.4,11.4h-265.5c-6.3,0-11.4-5.1-11.4-11.4v-92.5c0-6.3,5.1-11.4,11.4-11.4Z"/>
  <path class="cls-4" d="M343.6,876.3h91.3c2.2,0,3.9,5.1,3.9,11.4v92.5c0,6.3-1.8,11.4-3.9,11.4h-91.3c-2.2,0-3.9-5.1-3.9-11.4v-92.5c0-6.3,1.8-11.4,3.9-11.4Z"/>
  <path class="cls-9" d="M367.2,592.4c11-.8,22-1.2,33-1.5,11-.4,22-.4,33-.4,11,0,22,0,33,.4l16.5.5c5.5.3,11,.5,16.5.9-5.5.4-11,.6-16.5.9l-16.5.5c-11,.3-22,.4-33,.4-11,0-22,0-33-.4-11-.3-22-.7-33-1.5Z"/>
  <path class="cls-9" d="M367.8,614.5c11.2-.8,22.4-1.2,33.7-1.5,11.2-.4,22.4-.4,33.7-.4,11.2,0,22.4,0,33.7.4l16.8.5c5.6.3,11.2.5,16.8.9-5.6.4-11.2.6-16.8.9l-16.8.5c-11.2.3-22.4.4-33.7.4-11.2,0-22.4,0-33.7-.4-11.2-.3-22.4-.7-33.7-1.5Z"/>
  <path class="cls-9" d="M397.9,639c11.8-1.5,23.6-1.9,35.4-1.9,11.8,0,23.6.4,35.4,1.9-11.8,1.5-23.6,1.9-35.4,1.9-11.8,0-23.6-.4-35.4-1.9Z"/>
  <path class="cls-8" d="M252.2,822.6c30.2-1.5,60.4-2.5,90.6-3,30.2-.6,60.4-.8,90.6-.9,30.2,0,60.4.2,90.6.8,30.2.5,60.4,1.5,90.6,3-30.2,1.5-60.4,2.5-90.6,3-30.2.6-60.4.8-90.6.8-30.2,0-60.4-.2-90.6-.9-30.2-.5-60.4-1.5-90.6-3Z"/>
  <g class="cls-7">
    <path class="cls-3" d="M335,4.9c-30.8,3-60.7,7.2-87,11.9-3,90.7-4,242.2,18.2,325.9,33,124.9,91.8,187.3,91.8,187.3,0,0-36.7-183.6-33-345.2,1.8-77.4,6-137.9,10-179.9Z"/>
  </g>
  <path class="cls-8" d="M706.9,109.6c-20.3-11.6-42.9-18.3-65.5-23.5-22.7-5.2-45.7-8.8-68.8-11.7-23.1-2.7-46.3-4.9-69.6-6.2-23.3-1.4-46.6-2.4-69.8-2.5-23.3-.2-46.6.6-69.8,1.9-23.3,1.2-46.5,3.3-69.6,6-23.1,2.8-46.2,6.3-68.8,11.6-22.6,5.2-45.2,12-65.1,24.5,9.5-6.7,19.8-12.7,30.8-16.8,2.7-1.1,5.4-2.3,8.2-3.3l8.3-2.8c5.5-2,11.2-3.6,16.8-5.2,22.7-6.2,45.8-10.5,69-13.9,46.5-6.6,93.3-9.6,140.3-9.5,46.9.5,93.8,3.8,140.2,10.5,23.2,3.4,46.3,7.8,69,13.9,5.7,1.4,11.3,3.3,16.9,5.1,5.6,1.7,11.1,3.8,16.6,6,5.5,1.9,10.8,4.7,16.1,7.2,2.7,1.2,5.2,2.7,7.7,4.3l7.5,4.6Z"/>
  <polygon class="cls-3" points="313.5 149.7 330.7 119.7 346.7 150.3 376.8 167.4 346.1 183.5 329 213.5 312.9 182.9 282.9 165.8 313.5 149.7"/>
  <g class="cls-6">
    <polygon class="cls-3" points="258.4 1057 326.5 1057 496.4 838.5 418.2 838.5 258.4 1057"/>
  </g>
  <g class="cls-6">
    <polygon class="cls-3" points="426.4 1057 595 838.5 563 838.5 392.7 1057 426.4 1057"/>
  </g>
</svg>